<svg width="1540" height="1232" viewBox="0 0 1540 1232" fill="none" xmlns="http://www.w3.org/2000/svg">
<path fill-rule="evenodd" clip-rule="evenodd" d="M-40 -34H1580V1268H-40V-34ZM-2 32H38V72H-2V32ZM176 32H136V72H176V32ZM274 32H314V72H274V32ZM452 32H412V72H452V32ZM550 32H590V72H550V32ZM728 32H688V72H728V32ZM826 32H866V72H826V32ZM1004 32H964V72H1004V32ZM1102 32H1142V72H1102V32ZM1280 32H1240V72H1280V32ZM1378 32H1418V72H1378V32ZM1556 32H1516V72H1556V32ZM-2 136H38V176H-2V136ZM176 136H136V176H176V136ZM274 136H314V176H274V136ZM452 136H412V176H452V136ZM550 136H590V176H550V136ZM728 136H688V176H728V136ZM826 136H866V176H826V136ZM1004 136H964V176H1004V136ZM1102 136H1142V176H1102V136ZM1280 136H1240V176H1280V136ZM1378 136H1418V176H1378V136ZM1556 136H1516V176H1556V136ZM-2 240H38V280H-2V240ZM176 240H136V280H176V240ZM274 240H314V280H274V240ZM452 240H412V280H452V240ZM550 240H590V280H550V240ZM728 240H688V280H728V240ZM826 240H866V280H826V240ZM1004 240H964V280H1004V240ZM1102 240H1142V280H1102V240ZM1280 240H1240V280H1280V240ZM1378 240H1418V280H1378V240ZM1556 240H1516V280H1556V240ZM-2 344H38V384H-2V344ZM176 344H136V384H176V344ZM274 344H314V384H274V344ZM452 344H412V384H452V344ZM550 344H590V384H550V344ZM728 344H688V384H728V344ZM826 344H866V384H826V344ZM1004 344H964V384H1004V344ZM1102 344H1142V384H1102V344ZM1280 344H1240V384H1280V344ZM1378 344H1418V384H1378V344ZM1556 344H1516V384H1556V344ZM-2 448H38V488H-2V448ZM176 448H136V488H176V448ZM274 448H314V488H274V448ZM452 448H412V488H452V448ZM550 448H590V488H550V448ZM728 448H688V488H728V448ZM826 448H866V488H826V448ZM1004 448H964V488H1004V448ZM1102 448H1142V488H1102V448ZM1280 448H1240V488H1280V448ZM1378 448H1418V488H1378V448ZM1556 448H1516V488H1556V448ZM-2 552H38V592H-2V552ZM176 552H136V592H176V552ZM274 552H314V592H274V552ZM452 552H412V592H452V552ZM550 552H590V592H550V552ZM728 552H688V592H728V552ZM826 552H866V592H826V552ZM1004 552H964V592H1004V552ZM1102 552H1142V592H1102V552ZM1280 552H1240V592H1280V552ZM1378 552H1418V592H1378V552ZM1556 552H1516V592H1556V552ZM-2 656H38V696H-2V656ZM176 656H136V696H176V656ZM274 656H314V696H274V656ZM452 656H412V696H452V656ZM550 656H590V696H550V656ZM728 656H688V696H728V656ZM826 656H866V696H826V656ZM1004 656H964V696H1004V656ZM1102 656H1142V696H1102V656ZM1280 656H1240V696H1280V656ZM1378 656H1418V696H1378V656ZM1556 656H1516V696H1556V656ZM-2 760H38V800H-2V760ZM176 760H136V800H176V760ZM274 760H314V800H274V760ZM452 760H412V800H452V760ZM550 760H590V800H550V760ZM728 760H688V800H728V760ZM826 760H866V800H826V760ZM1004 760H964V800H1004V760ZM1102 760H1142V800H1102V760ZM1280 760H1240V800H1280V760ZM1378 760H1418V800H1378V760ZM1556 760H1516V800H1556V760ZM-2 864H38V904H-2V864ZM176 864H136V904H176V864ZM274 864H314V904H274V864ZM452 864H412V904H452V864ZM550 864H590V904H550V864ZM728 864H688V904H728V864ZM826 864H866V904H826V864ZM1004 864H964V904H1004V864ZM1102 864H1142V904H1102V864ZM1280 864H1240V904H1280V864ZM1378 864H1418V904H1378V864ZM1556 864H1516V904H1556V864ZM-2 968H38V1008H-2V968ZM176 968H136V1008H176V968ZM274 968H314V1008H274V968ZM452 968H412V1008H452V968ZM550 968H590V1008H550V968ZM728 968H688V1008H728V968ZM826 968H866V1008H826V968ZM1004 968H964V1008H1004V968ZM1102 968H1142V1008H1102V968ZM1280 968H1240V1008H1280V968ZM1378 968H1418V1008H1378V968ZM1556 968H1516V1008H1556V968ZM-2 1072H38V1112H-2V1072ZM176 1072H136V1112H176V1072ZM274 1072H314V1112H274V1072ZM452 1072H412V1112H452V1072ZM550 1072H590V1112H550V1072ZM728 1072H688V1112H728V1072ZM826 1072H866V1112H826V1072ZM1004 1072H964V1112H1004V1072ZM1102 1072H1142V1112H1102V1072ZM1280 1072H1240V1112H1280V1072ZM1378 1072H1418V1112H1378V1072ZM1556 1072H1516V1112H1556V1072ZM-2 1176H38V1216H-2V1176ZM176 1176H136V1216H176V1176ZM274 1176H314V1216H274V1176ZM452 1176H412V1216H452V1176ZM550 1176H590V1216H550V1176ZM728 1176H688V1216H728V1176ZM826 1176H866V1216H826V1176ZM1004 1176H964V1216H1004V1176ZM1102 1176H1142V1216H1102V1176ZM1280 1176H1240V1216H1280V1176ZM1378 1176H1418V1216H1378V1176ZM1556 1176H1516V1216H1556V1176Z" fill="url(#paint0_linear_5_44880)"/>
<defs>
<linearGradient id="paint0_linear_5_44880" x1="-40" y1="616" x2="1580" y2="616" gradientUnits="userSpaceOnUse">
<stop offset="0.50035" stop-color="#CAE528"/>
<stop offset="0.501591" stop-color="#2EF743"/>
</linearGradient>
</defs>
</svg>
